<?xml version="1.0" standalone="no"?>
<!DOCTYPE svg PUBLIC "-//W3C//DTD SVG 20010904//EN"
 "http://www.w3.org/TR/2001/REC-SVG-20010904/DTD/svg10.dtd">
<svg version="1.0" xmlns="http://www.w3.org/2000/svg"
 width="254.000000pt" height="254.000000pt" viewBox="0 0 254.000000 254.000000"
 preserveAspectRatio="xMidYMid meet">
<metadata>
Created by potrace 1.11, written by Peter Selinger 2001-2013
</metadata>
<g transform="translate(0.000000,254.000000) scale(0.100000,-0.100000)"
fill="#000000" stroke="none">
<path d="M1642 1984 c-148 -38 -237 -115 -309 -264 -25 -52 -47 -97 -49 -99
-2 -2 -36 11 -76 29 -144 65 -242 76 -351 39 -112 -37 -175 -84 -240 -179 -17
-25 -35 -47 -39 -49 -5 -1 -20 -21 -34 -43 -36 -57 -39 -115 -8 -175 13 -26
24 -51 24 -55 0 -25 47 -126 76 -163 18 -25 31 -51 28 -58 -7 -20 -133 -85
-194 -100 -44 -12 -65 -12 -119 -1 -119 22 -171 72 -177 166 -3 59 13 98 57
141 34 32 37 47 9 47 -18 0 -99 -70 -101 -87 0 -4 -3 -17 -5 -28 -9 -41 -5
-114 9 -147 63 -151 302 -211 482 -120 28 14 64 35 81 48 38 30 39 30 100 0
52 -26 765 -349 853 -387 30 -13 56 -18 61 -13 4 5 55 115 113 244 93 207 111
241 157 288 29 30 49 45 46 35 -11 -36 -10 -90 3 -120 34 -84 148 -52 219 61
53 85 62 103 62 122 0 20 -20 14 -34 -11 -53 -96 -110 -161 -149 -170 -22 -6
-27 -3 -33 20 -6 24 -3 55 10 110 9 41 48 116 83 162 28 36 37 57 36 85 0 34
3 38 34 49 38 12 112 82 115 107 4 55 2 70 -16 96 -25 37 -75 57 -145 57 l-57
1 -12 45 c-52 192 -200 314 -397 327 -33 2 -84 -3 -113 -10z m653 -418 c32
-14 35 -19 35 -57 0 -35 -6 -47 -37 -76 -21 -19 -49 -39 -63 -45 -21 -8 -110
-28 -110 -24 0 0 9 25 20 53 17 45 25 86 29 151 1 17 83 16 126 -2z m-128
-254 c-10 -10 -17 -22 -17 -26 0 -13 -79 -123 -116 -162 -20 -22 -35 -34 -33
-28 2 6 24 59 49 117 47 111 46 110 114 116 18 1 18 0 3 -17z"/>
</g>
</svg>
